<?xml version="1.0" encoding="utf-8"?>
<!-- Generator: Adobe Illustrator 18.1.1, SVG Export Plug-In . SVG Version: 6.00 Build 0)  -->
<!DOCTYPE svg PUBLIC "-//W3C//DTD SVG 1.1//EN" "http://www.w3.org/Graphics/SVG/1.1/DTD/svg11.dtd">
<svg version="1.1" id="Layer_1" xmlns="http://www.w3.org/2000/svg" xmlns:xlink="http://www.w3.org/1999/xlink" x="0px" y="0px"
	 viewBox="0 0 960 560" enable-background="new 0 0 960 560" xml:space="preserve">
<g>
	<g>
		<path fill="#512200" stroke="#512200" stroke-width="2.5" stroke-miterlimit="10" d="M504.6,274.4c0.8,3.2,1.3,6.6,1.3,10.2
			c0,0.4,0,0.8,0,1.2l4,1.6l3.3-2.9l2.5,3.1l-5,4.3l-5.2-2.2c-0.6,4.8-2,9.2-4,13l0.7-1l3.9,2.3l3.7-2.3l2.1,3.5l-5.6,3.5l-6.1-3.7
			c-4.8,7.7-12.2,12.6-20.6,12.6c-8.3,0-15.8-4.9-20.6-12.6l-6,3.6l-5.6-3.5l2.1-3.5l3.7,2.3l3.9-2.3l0.3,0.4
			c-1.8-3.7-3.1-7.9-3.7-12.3l-5.1,2.1l-5-4.3l2.5-3.1l3.3,2.9l3.9-1.6c0-0.4,0-0.9,0-1.3c0-3.5,0.4-7,1.3-10.2l-6.5-0.2l-2.8-6
			l3.6-1.8l1.9,4l4.5,0.2l0.1,1.3c2.7-8.3,8-14.9,14.6-18.2c0.1-2.5,2.2-4.6,4.7-4.6h11c2.6,0,4.7,2.2,4.7,4.8c0,0.1,0,0.2,0,0.3
			c6.2,3.5,11.1,10,13.7,18.1l0.1-1.8l4.5-0.2l1.9-4l3.6,1.8l-2.8,6L504.6,274.4z"/>
		<polygon fill="#512200" stroke="#512200" stroke-width="2.5" stroke-miterlimit="10" points="492.9,244.9 492.4,246.4 
			491.6,246.7 489.9,247.2 488.5,248.1 486.6,249.2 486.6,248.1 488.8,246.4 490.4,245.9 491.8,244.9 492.6,243.3 494.2,242.7 
			493.8,244.3 		"/>
		<polygon fill="#512200" stroke="#512200" stroke-width="2.5" stroke-miterlimit="10" points="470.5,247.2 468.8,246.7 468,246.4 
			467.5,244.9 466.6,244.3 466.2,242.7 467.8,243.3 468.6,244.9 470,245.9 471.6,246.4 473.9,248.1 473.9,249.2 471.9,248.1 		"/>
	</g>
</g>
<g>
</g>
<g>
</g>
<g>
</g>
<g>
</g>
<g>
</g>
<g>
</g>
<g>
</g>
<g>
</g>
<g>
</g>
<g>
</g>
<g>
</g>
<g>
</g>
<g>
</g>
<g>
</g>
<g>
</g>
</svg>
