<svg xmlns="http://www.w3.org/2000/svg" viewBox="434 230 89 94" enable-background="new 434 230 89 94"><g fill="#512200" stroke="#512200" stroke-width="2.5" stroke-miterlimit="10"><path d="M504.6 274.4c.8 3.2 1.3 6.6 1.3 10.2v1.2l4 1.6 3.3-2.9 2.5 3.1-5 4.3-5.2-2.2c-.6 4.8-2 9.2-4 13l.7-1 3.9 2.3 3.7-2.3 2.1 3.5-5.6 3.5-6.1-3.7c-4.8 7.7-12.2 12.6-20.6 12.6-8.3 0-15.8-4.9-20.6-12.6l-6 3.6-5.6-3.5 2.1-3.5 3.7 2.3 3.9-2.3.3.4c-1.8-3.7-3.1-7.9-3.7-12.3l-5.1 2.1-5-4.3 2.5-3.1 3.3 2.9 3.9-1.6v-1.3c0-3.5.4-7 1.3-10.2l-6.5-.2-2.8-6 3.6-1.8 1.9 4 4.5.2.1 1.3c2.7-8.3 8-14.9 14.6-18.2.1-2.5 2.2-4.6 4.7-4.6h11c2.6 0 4.7 2.2 4.7 4.8v.3c6.2 3.5 11.1 10 13.7 18.1l.1-1.8 4.5-.2 1.9-4 3.6 1.8-2.8 6-6.8.5zM492.9 244.9l-.5 1.5-.8.3-1.7.5-1.4.9-1.9 1.1v-1.1l2.2-1.7 1.6-.5 1.4-1 .8-1.6 1.6-.6-.4 1.6zM470.5 247.2l-1.7-.5-.8-.3-.5-1.5-.9-.6-.4-1.6 1.6.6.8 1.6 1.4 1 1.6.5 2.3 1.7v1.1l-2-1.1z"/></g></svg>